<svg width="30" height="31" viewBox="0 0 30 31" fill="none" xmlns="http://www.w3.org/2000/svg">
<path d="M29.9999 15.6463C29.9999 14.3878 29.8978 13.4695 29.6768 12.5171H15.306V18.1973H23.7413C23.5713 19.6089 22.653 21.7348 20.6121 23.1633L20.5835 23.3534L25.1273 26.8734L25.4421 26.9049C28.3332 24.2348 29.9999 20.3062 29.9999 15.6463Z" fill="#4285F4"/>
<path d="M15.306 30.6123C19.4386 30.6123 22.908 29.2517 25.4421 26.9048L20.6121 23.1632C19.3196 24.0646 17.5849 24.6938 15.306 24.6938C11.2584 24.6938 7.82308 22.0238 6.59847 18.3334L6.41897 18.3486L1.69429 22.0051L1.63251 22.1768C4.14949 27.1768 9.31958 30.6123 15.306 30.6123Z" fill="#34A853"/>
<path d="M6.59858 18.3335C6.27546 17.3811 6.08845 16.3606 6.08845 15.3062C6.08845 14.2517 6.27546 13.2314 6.58158 12.279L6.57302 12.0762L1.78914 8.36096L1.63262 8.43541C0.595245 10.5103 0 12.8403 0 15.3062C0 17.7722 0.595245 20.1021 1.63262 22.1769L6.59858 18.3335Z" fill="#FBBC05"/>
<path d="M15.306 5.91833C18.1801 5.91833 20.1189 7.15982 21.2244 8.19731L25.5441 3.9796C22.8911 1.51361 19.4386 0 15.306 0C9.31958 0 4.14949 3.43535 1.63251 8.43532L6.58147 12.2789C7.82308 8.58844 11.2584 5.91833 15.306 5.91833Z" fill="#EB4335"/>
</svg>
